<mxfile host="app.diagrams.net" modified="2023-05-29T15:03:44.971Z" agent="Mozilla/5.0 (Windows NT 10.0; Win64; x64) AppleWebKit/537.36 (KHTML, like Gecko) Chrome/113.0.0.0 Safari/537.36" etag="uDz8X2chxo0nfSY0yC4h" version="21.3.4" type="google" pages="2">
  <diagram name="Страница 1" id="eE-gdzqVYDcZq1q3PWrR">
    <mxGraphModel grid="1" page="1" gridSize="10" guides="1" tooltips="1" connect="1" arrows="1" fold="1" pageScale="1" pageWidth="3300" pageHeight="4681" background="none" math="0" shadow="0">
      <root>
        <mxCell id="0" />
        <mxCell id="1" parent="0" />
        <mxCell id="43woCf4Ci9Up-YKyNIjF-12" value="Profile" style="swimlane;fontStyle=0;childLayout=stackLayout;horizontal=1;startSize=30;horizontalStack=0;resizeParent=1;resizeParentMax=0;resizeLast=0;collapsible=1;marginBottom=0;whiteSpace=wrap;html=1;fillColor=#dae8fc;strokeColor=#6c8ebf;" vertex="1" parent="1">
          <mxGeometry x="1060" y="50" width="140" height="150" as="geometry" />
        </mxCell>
        <mxCell id="43woCf4Ci9Up-YKyNIjF-13" value="profile_id(PK)" style="text;strokeColor=none;fillColor=none;align=left;verticalAlign=middle;spacingLeft=4;spacingRight=4;overflow=hidden;points=[[0,0.5],[1,0.5]];portConstraint=eastwest;rotatable=0;whiteSpace=wrap;html=1;" vertex="1" parent="43woCf4Ci9Up-YKyNIjF-12">
          <mxGeometry y="30" width="140" height="30" as="geometry" />
        </mxCell>
        <mxCell id="43woCf4Ci9Up-YKyNIjF-15" value="full_name" style="text;strokeColor=none;fillColor=none;align=left;verticalAlign=middle;spacingLeft=4;spacingRight=4;overflow=hidden;points=[[0,0.5],[1,0.5]];portConstraint=eastwest;rotatable=0;whiteSpace=wrap;html=1;" vertex="1" parent="43woCf4Ci9Up-YKyNIjF-12">
          <mxGeometry y="60" width="140" height="30" as="geometry" />
        </mxCell>
        <mxCell id="43woCf4Ci9Up-YKyNIjF-16" value="education" style="text;strokeColor=none;fillColor=none;align=left;verticalAlign=middle;spacingLeft=4;spacingRight=4;overflow=hidden;points=[[0,0.5],[1,0.5]];portConstraint=eastwest;rotatable=0;whiteSpace=wrap;html=1;" vertex="1" parent="43woCf4Ci9Up-YKyNIjF-12">
          <mxGeometry y="90" width="140" height="30" as="geometry" />
        </mxCell>
        <mxCell id="43woCf4Ci9Up-YKyNIjF-118" value="headline" style="text;strokeColor=none;fillColor=none;align=left;verticalAlign=middle;spacingLeft=4;spacingRight=4;overflow=hidden;points=[[0,0.5],[1,0.5]];portConstraint=eastwest;rotatable=0;whiteSpace=wrap;html=1;" vertex="1" parent="43woCf4Ci9Up-YKyNIjF-12">
          <mxGeometry y="120" width="140" height="30" as="geometry" />
        </mxCell>
        <mxCell id="43woCf4Ci9Up-YKyNIjF-22" value="Experience" style="swimlane;fontStyle=0;childLayout=stackLayout;horizontal=1;startSize=30;horizontalStack=0;resizeParent=1;resizeParentMax=0;resizeLast=0;collapsible=1;marginBottom=0;whiteSpace=wrap;html=1;fillColor=#dae8fc;strokeColor=#6c8ebf;" vertex="1" parent="1">
          <mxGeometry x="1060" y="260" width="140" height="120" as="geometry" />
        </mxCell>
        <mxCell id="43woCf4Ci9Up-YKyNIjF-23" value="project" style="text;strokeColor=none;fillColor=none;align=left;verticalAlign=middle;spacingLeft=4;spacingRight=4;overflow=hidden;points=[[0,0.5],[1,0.5]];portConstraint=eastwest;rotatable=0;whiteSpace=wrap;html=1;" vertex="1" parent="43woCf4Ci9Up-YKyNIjF-22">
          <mxGeometry y="30" width="140" height="30" as="geometry" />
        </mxCell>
        <mxCell id="43woCf4Ci9Up-YKyNIjF-24" value="url" style="text;strokeColor=none;fillColor=none;align=left;verticalAlign=middle;spacingLeft=4;spacingRight=4;overflow=hidden;points=[[0,0.5],[1,0.5]];portConstraint=eastwest;rotatable=0;whiteSpace=wrap;html=1;" vertex="1" parent="43woCf4Ci9Up-YKyNIjF-22">
          <mxGeometry y="60" width="140" height="30" as="geometry" />
        </mxCell>
        <mxCell id="43woCf4Ci9Up-YKyNIjF-25" value="dates" style="text;strokeColor=none;fillColor=none;align=left;verticalAlign=middle;spacingLeft=4;spacingRight=4;overflow=hidden;points=[[0,0.5],[1,0.5]];portConstraint=eastwest;rotatable=0;whiteSpace=wrap;html=1;" vertex="1" parent="43woCf4Ci9Up-YKyNIjF-22">
          <mxGeometry y="90" width="140" height="30" as="geometry" />
        </mxCell>
        <mxCell id="43woCf4Ci9Up-YKyNIjF-28" value="" style="endArrow=classic;html=1;rounded=0;entryX=0.75;entryY=0;entryDx=0;entryDy=0;dashed=1;dashPattern=8 8;" edge="1" parent="1">
          <mxGeometry width="50" height="50" relative="1" as="geometry">
            <mxPoint x="1130" y="200" as="sourcePoint" />
            <mxPoint x="1130" y="260" as="targetPoint" />
          </mxGeometry>
        </mxCell>
        <mxCell id="43woCf4Ci9Up-YKyNIjF-31" value="Profile" style="swimlane;fontStyle=0;childLayout=stackLayout;horizontal=1;startSize=30;horizontalStack=0;resizeParent=1;resizeParentMax=0;resizeLast=0;collapsible=1;marginBottom=0;whiteSpace=wrap;html=1;fillColor=#dae8fc;strokeColor=#6c8ebf;" vertex="1" parent="1">
          <mxGeometry x="1060" y="510" width="140" height="150" as="geometry">
            <mxRectangle x="1060" y="490" width="70" height="30" as="alternateBounds" />
          </mxGeometry>
        </mxCell>
        <mxCell id="43woCf4Ci9Up-YKyNIjF-32" value="profile_id &lt;b&gt;(PK)&lt;/b&gt;" style="text;strokeColor=none;fillColor=none;align=left;verticalAlign=middle;spacingLeft=4;spacingRight=4;overflow=hidden;points=[[0,0.5],[1,0.5]];portConstraint=eastwest;rotatable=0;whiteSpace=wrap;html=1;" vertex="1" parent="43woCf4Ci9Up-YKyNIjF-31">
          <mxGeometry y="30" width="140" height="30" as="geometry" />
        </mxCell>
        <mxCell id="43woCf4Ci9Up-YKyNIjF-34" value="headline" style="text;strokeColor=none;fillColor=none;align=left;verticalAlign=middle;spacingLeft=4;spacingRight=4;overflow=hidden;points=[[0,0.5],[1,0.5]];portConstraint=eastwest;rotatable=0;whiteSpace=wrap;html=1;" vertex="1" parent="43woCf4Ci9Up-YKyNIjF-31">
          <mxGeometry y="60" width="140" height="30" as="geometry" />
        </mxCell>
        <mxCell id="43woCf4Ci9Up-YKyNIjF-35" value="about_me" style="text;strokeColor=none;fillColor=none;align=left;verticalAlign=middle;spacingLeft=4;spacingRight=4;overflow=hidden;points=[[0,0.5],[1,0.5]];portConstraint=eastwest;rotatable=0;whiteSpace=wrap;html=1;" vertex="1" parent="43woCf4Ci9Up-YKyNIjF-31">
          <mxGeometry y="90" width="140" height="30" as="geometry" />
        </mxCell>
        <mxCell id="43woCf4Ci9Up-YKyNIjF-119" value="full_name" style="text;strokeColor=none;fillColor=none;align=left;verticalAlign=middle;spacingLeft=4;spacingRight=4;overflow=hidden;points=[[0,0.5],[1,0.5]];portConstraint=eastwest;rotatable=0;whiteSpace=wrap;html=1;" vertex="1" parent="43woCf4Ci9Up-YKyNIjF-31">
          <mxGeometry y="120" width="140" height="30" as="geometry" />
        </mxCell>
        <mxCell id="43woCf4Ci9Up-YKyNIjF-45" value="" style="endArrow=none;html=1;rounded=0;entryX=0.5;entryY=0;entryDx=0;entryDy=0;dashed=1;dashPattern=8 8;exitX=0.503;exitY=0.951;exitDx=0;exitDy=0;exitPerimeter=0;startArrow=classic;startFill=1;endFill=0;" edge="1" parent="1" source="43woCf4Ci9Up-YKyNIjF-119">
          <mxGeometry width="50" height="50" relative="1" as="geometry">
            <mxPoint x="1135" y="640" as="sourcePoint" />
            <mxPoint x="1130" y="700" as="targetPoint" />
          </mxGeometry>
        </mxCell>
        <mxCell id="43woCf4Ci9Up-YKyNIjF-50" value="Education" style="swimlane;fontStyle=0;childLayout=stackLayout;horizontal=1;startSize=30;horizontalStack=0;resizeParent=1;resizeParentMax=0;resizeLast=0;collapsible=1;marginBottom=0;whiteSpace=wrap;html=1;fillColor=#dae8fc;strokeColor=#000000;" vertex="1" parent="1">
          <mxGeometry x="1260" y="700" width="140" height="240" as="geometry">
            <mxRectangle x="1260" y="700" width="90" height="30" as="alternateBounds" />
          </mxGeometry>
        </mxCell>
        <mxCell id="43woCf4Ci9Up-YKyNIjF-51" value="education_id&amp;nbsp;&lt;b style=&quot;border-color: var(--border-color);&quot;&gt;(PK)&lt;/b&gt;" style="text;strokeColor=none;fillColor=none;align=left;verticalAlign=middle;spacingLeft=4;spacingRight=4;overflow=hidden;points=[[0,0.5],[1,0.5]];portConstraint=eastwest;rotatable=0;whiteSpace=wrap;html=1;" vertex="1" parent="43woCf4Ci9Up-YKyNIjF-50">
          <mxGeometry y="30" width="140" height="30" as="geometry" />
        </mxCell>
        <mxCell id="43woCf4Ci9Up-YKyNIjF-52" value="school_name" style="text;strokeColor=none;fillColor=none;align=left;verticalAlign=middle;spacingLeft=4;spacingRight=4;overflow=hidden;points=[[0,0.5],[1,0.5]];portConstraint=eastwest;rotatable=0;whiteSpace=wrap;html=1;" vertex="1" parent="43woCf4Ci9Up-YKyNIjF-50">
          <mxGeometry y="60" width="140" height="30" as="geometry" />
        </mxCell>
        <mxCell id="43woCf4Ci9Up-YKyNIjF-53" value="degree" style="text;strokeColor=none;fillColor=none;align=left;verticalAlign=middle;spacingLeft=4;spacingRight=4;overflow=hidden;points=[[0,0.5],[1,0.5]];portConstraint=eastwest;rotatable=0;whiteSpace=wrap;html=1;" vertex="1" parent="43woCf4Ci9Up-YKyNIjF-50">
          <mxGeometry y="90" width="140" height="30" as="geometry" />
        </mxCell>
        <mxCell id="43woCf4Ci9Up-YKyNIjF-54" value="field_of_study" style="text;strokeColor=none;fillColor=none;align=left;verticalAlign=middle;spacingLeft=4;spacingRight=4;overflow=hidden;points=[[0,0.5],[1,0.5]];portConstraint=eastwest;rotatable=0;whiteSpace=wrap;html=1;" vertex="1" parent="43woCf4Ci9Up-YKyNIjF-50">
          <mxGeometry y="120" width="140" height="30" as="geometry" />
        </mxCell>
        <mxCell id="43woCf4Ci9Up-YKyNIjF-55" value="start_date" style="text;strokeColor=none;fillColor=none;align=left;verticalAlign=middle;spacingLeft=4;spacingRight=4;overflow=hidden;points=[[0,0.5],[1,0.5]];portConstraint=eastwest;rotatable=0;whiteSpace=wrap;html=1;" vertex="1" parent="43woCf4Ci9Up-YKyNIjF-50">
          <mxGeometry y="150" width="140" height="30" as="geometry" />
        </mxCell>
        <mxCell id="43woCf4Ci9Up-YKyNIjF-56" value="end_date" style="text;strokeColor=none;fillColor=none;align=left;verticalAlign=middle;spacingLeft=4;spacingRight=4;overflow=hidden;points=[[0,0.5],[1,0.5]];portConstraint=eastwest;rotatable=0;whiteSpace=wrap;html=1;" vertex="1" parent="43woCf4Ci9Up-YKyNIjF-50">
          <mxGeometry y="180" width="140" height="30" as="geometry" />
        </mxCell>
        <mxCell id="43woCf4Ci9Up-YKyNIjF-57" value="profile_id&lt;b style=&quot;border-color: var(--border-color);&quot;&gt;&amp;nbsp;(FK)&lt;/b&gt;" style="text;strokeColor=none;fillColor=none;align=left;verticalAlign=middle;spacingLeft=4;spacingRight=4;overflow=hidden;points=[[0,0.5],[1,0.5]];portConstraint=eastwest;rotatable=0;whiteSpace=wrap;html=1;" vertex="1" parent="43woCf4Ci9Up-YKyNIjF-50">
          <mxGeometry y="210" width="140" height="30" as="geometry" />
        </mxCell>
        <mxCell id="43woCf4Ci9Up-YKyNIjF-58" value="" style="endArrow=classic;html=1;rounded=0;entryX=1.006;entryY=-0.182;entryDx=0;entryDy=0;dashed=1;dashPattern=8 8;exitX=0.5;exitY=0;exitDx=0;exitDy=0;entryPerimeter=0;" edge="1" parent="1" source="43woCf4Ci9Up-YKyNIjF-50" target="43woCf4Ci9Up-YKyNIjF-119">
          <mxGeometry width="50" height="50" relative="1" as="geometry">
            <mxPoint x="1185" y="650" as="sourcePoint" />
            <mxPoint x="1185" y="710" as="targetPoint" />
            <Array as="points">
              <mxPoint x="1330" y="625" />
            </Array>
          </mxGeometry>
        </mxCell>
        <mxCell id="43woCf4Ci9Up-YKyNIjF-59" value="Experience" style="swimlane;fontStyle=0;childLayout=stackLayout;horizontal=1;startSize=30;horizontalStack=0;resizeParent=1;resizeParentMax=0;resizeLast=0;collapsible=1;marginBottom=0;whiteSpace=wrap;html=1;fillColor=#dae8fc;strokeColor=#000000;" vertex="1" parent="1">
          <mxGeometry x="860" y="700" width="140" height="210" as="geometry" />
        </mxCell>
        <mxCell id="43woCf4Ci9Up-YKyNIjF-60" value="project_id&amp;nbsp;&lt;b style=&quot;border-color: var(--border-color);&quot;&gt;(PK)&lt;/b&gt;" style="text;strokeColor=none;fillColor=none;align=left;verticalAlign=middle;spacingLeft=4;spacingRight=4;overflow=hidden;points=[[0,0.5],[1,0.5]];portConstraint=eastwest;rotatable=0;whiteSpace=wrap;html=1;" vertex="1" parent="43woCf4Ci9Up-YKyNIjF-59">
          <mxGeometry y="30" width="140" height="30" as="geometry" />
        </mxCell>
        <mxCell id="43woCf4Ci9Up-YKyNIjF-61" value="project_name" style="text;strokeColor=none;fillColor=none;align=left;verticalAlign=middle;spacingLeft=4;spacingRight=4;overflow=hidden;points=[[0,0.5],[1,0.5]];portConstraint=eastwest;rotatable=0;whiteSpace=wrap;html=1;" vertex="1" parent="43woCf4Ci9Up-YKyNIjF-59">
          <mxGeometry y="60" width="140" height="30" as="geometry" />
        </mxCell>
        <mxCell id="43woCf4Ci9Up-YKyNIjF-62" value="project_description" style="text;strokeColor=none;fillColor=none;align=left;verticalAlign=middle;spacingLeft=4;spacingRight=4;overflow=hidden;points=[[0,0.5],[1,0.5]];portConstraint=eastwest;rotatable=0;whiteSpace=wrap;html=1;" vertex="1" parent="43woCf4Ci9Up-YKyNIjF-59">
          <mxGeometry y="90" width="140" height="30" as="geometry" />
        </mxCell>
        <mxCell id="43woCf4Ci9Up-YKyNIjF-63" value="start_date" style="text;strokeColor=none;fillColor=none;align=left;verticalAlign=middle;spacingLeft=4;spacingRight=4;overflow=hidden;points=[[0,0.5],[1,0.5]];portConstraint=eastwest;rotatable=0;whiteSpace=wrap;html=1;" vertex="1" parent="43woCf4Ci9Up-YKyNIjF-59">
          <mxGeometry y="120" width="140" height="30" as="geometry" />
        </mxCell>
        <mxCell id="43woCf4Ci9Up-YKyNIjF-64" value="end_date" style="text;strokeColor=none;fillColor=none;align=left;verticalAlign=middle;spacingLeft=4;spacingRight=4;overflow=hidden;points=[[0,0.5],[1,0.5]];portConstraint=eastwest;rotatable=0;whiteSpace=wrap;html=1;" vertex="1" parent="43woCf4Ci9Up-YKyNIjF-59">
          <mxGeometry y="150" width="140" height="30" as="geometry" />
        </mxCell>
        <mxCell id="43woCf4Ci9Up-YKyNIjF-65" value="profile_id&lt;b style=&quot;border-color: var(--border-color);&quot;&gt;&amp;nbsp;(FK)&lt;/b&gt;" style="text;strokeColor=none;fillColor=none;align=left;verticalAlign=middle;spacingLeft=4;spacingRight=4;overflow=hidden;points=[[0,0.5],[1,0.5]];portConstraint=eastwest;rotatable=0;whiteSpace=wrap;html=1;" vertex="1" parent="43woCf4Ci9Up-YKyNIjF-59">
          <mxGeometry y="180" width="140" height="30" as="geometry" />
        </mxCell>
        <mxCell id="43woCf4Ci9Up-YKyNIjF-66" value="" style="endArrow=classic;html=1;rounded=0;entryX=-0.027;entryY=0.843;entryDx=0;entryDy=0;dashed=1;dashPattern=8 8;exitX=0.5;exitY=0;exitDx=0;exitDy=0;entryPerimeter=0;" edge="1" parent="1" source="43woCf4Ci9Up-YKyNIjF-59" target="43woCf4Ci9Up-YKyNIjF-35">
          <mxGeometry width="50" height="50" relative="1" as="geometry">
            <mxPoint x="860" y="700" as="sourcePoint" />
            <mxPoint x="730" y="625" as="targetPoint" />
            <Array as="points">
              <mxPoint x="930" y="625" />
            </Array>
          </mxGeometry>
        </mxCell>
        <mxCell id="43woCf4Ci9Up-YKyNIjF-75" value="Skills" style="swimlane;fontStyle=0;childLayout=stackLayout;horizontal=1;startSize=30;horizontalStack=0;resizeParent=1;resizeParentMax=0;resizeLast=0;collapsible=1;marginBottom=0;whiteSpace=wrap;html=1;fillColor=#dae8fc;strokeColor=#000000;" vertex="1" parent="1">
          <mxGeometry x="1060" y="700" width="140" height="150" as="geometry" />
        </mxCell>
        <mxCell id="43woCf4Ci9Up-YKyNIjF-76" value="skill_id&amp;nbsp;&lt;b style=&quot;border-color: var(--border-color);&quot;&gt;(PK)&lt;/b&gt;" style="text;strokeColor=none;fillColor=none;align=left;verticalAlign=middle;spacingLeft=4;spacingRight=4;overflow=hidden;points=[[0,0.5],[1,0.5]];portConstraint=eastwest;rotatable=0;whiteSpace=wrap;html=1;" vertex="1" parent="43woCf4Ci9Up-YKyNIjF-75">
          <mxGeometry y="30" width="140" height="30" as="geometry" />
        </mxCell>
        <mxCell id="43woCf4Ci9Up-YKyNIjF-77" value="skill_name" style="text;strokeColor=none;fillColor=none;align=left;verticalAlign=middle;spacingLeft=4;spacingRight=4;overflow=hidden;points=[[0,0.5],[1,0.5]];portConstraint=eastwest;rotatable=0;whiteSpace=wrap;html=1;" vertex="1" parent="43woCf4Ci9Up-YKyNIjF-75">
          <mxGeometry y="60" width="140" height="30" as="geometry" />
        </mxCell>
        <mxCell id="43woCf4Ci9Up-YKyNIjF-78" value="proficiency_level" style="text;strokeColor=none;fillColor=none;align=left;verticalAlign=middle;spacingLeft=4;spacingRight=4;overflow=hidden;points=[[0,0.5],[1,0.5]];portConstraint=eastwest;rotatable=0;whiteSpace=wrap;html=1;" vertex="1" parent="43woCf4Ci9Up-YKyNIjF-75">
          <mxGeometry y="90" width="140" height="30" as="geometry" />
        </mxCell>
        <mxCell id="43woCf4Ci9Up-YKyNIjF-79" value="profile_id&lt;b style=&quot;border-color: var(--border-color);&quot;&gt;&amp;nbsp;(FK)&lt;/b&gt;" style="text;strokeColor=none;fillColor=none;align=left;verticalAlign=middle;spacingLeft=4;spacingRight=4;overflow=hidden;points=[[0,0.5],[1,0.5]];portConstraint=eastwest;rotatable=0;whiteSpace=wrap;html=1;" vertex="1" parent="43woCf4Ci9Up-YKyNIjF-75">
          <mxGeometry y="120" width="140" height="30" as="geometry" />
        </mxCell>
        <mxCell id="43woCf4Ci9Up-YKyNIjF-109" value="Profile" style="swimlane;fontStyle=0;childLayout=stackLayout;horizontal=1;startSize=30;horizontalStack=0;resizeParent=1;resizeParentMax=0;resizeLast=0;collapsible=1;marginBottom=0;whiteSpace=wrap;html=1;fillColor=#dae8fc;strokeColor=#000000;" vertex="1" parent="1">
          <mxGeometry x="440" y="1030" width="240" height="150" as="geometry" />
        </mxCell>
        <mxCell id="43woCf4Ci9Up-YKyNIjF-110" value="profile_id: NUBMER NOT NULL&amp;nbsp;&lt;b style=&quot;border-color: var(--border-color);&quot;&gt;(PK)&lt;/b&gt;" style="text;strokeColor=none;fillColor=none;align=left;verticalAlign=middle;spacingLeft=4;spacingRight=4;overflow=hidden;points=[[0,0.5],[1,0.5]];portConstraint=eastwest;rotatable=0;whiteSpace=wrap;html=1;" vertex="1" parent="43woCf4Ci9Up-YKyNIjF-109">
          <mxGeometry y="30" width="240" height="30" as="geometry" />
        </mxCell>
        <mxCell id="43woCf4Ci9Up-YKyNIjF-120" value="full_name: VARCHAR2(100) NOT NULL" style="text;strokeColor=none;fillColor=none;align=left;verticalAlign=middle;spacingLeft=4;spacingRight=4;overflow=hidden;points=[[0,0.5],[1,0.5]];portConstraint=eastwest;rotatable=0;whiteSpace=wrap;html=1;" vertex="1" parent="43woCf4Ci9Up-YKyNIjF-109">
          <mxGeometry y="60" width="240" height="30" as="geometry" />
        </mxCell>
        <mxCell id="43woCf4Ci9Up-YKyNIjF-112" value="headline: VARCHAR2(50)" style="text;strokeColor=none;fillColor=none;align=left;verticalAlign=middle;spacingLeft=4;spacingRight=4;overflow=hidden;points=[[0,0.5],[1,0.5]];portConstraint=eastwest;rotatable=0;whiteSpace=wrap;html=1;" vertex="1" parent="43woCf4Ci9Up-YKyNIjF-109">
          <mxGeometry y="90" width="240" height="30" as="geometry" />
        </mxCell>
        <mxCell id="43woCf4Ci9Up-YKyNIjF-113" value="about_me: VARCHAR2(200)" style="text;strokeColor=none;fillColor=none;align=left;verticalAlign=middle;spacingLeft=4;spacingRight=4;overflow=hidden;points=[[0,0.5],[1,0.5]];portConstraint=eastwest;rotatable=0;whiteSpace=wrap;html=1;" vertex="1" parent="43woCf4Ci9Up-YKyNIjF-109">
          <mxGeometry y="120" width="240" height="30" as="geometry" />
        </mxCell>
        <mxCell id="43woCf4Ci9Up-YKyNIjF-121" value="Skills" style="swimlane;fontStyle=0;childLayout=stackLayout;horizontal=1;startSize=30;horizontalStack=0;resizeParent=1;resizeParentMax=0;resizeLast=0;collapsible=1;marginBottom=0;whiteSpace=wrap;html=1;fillColor=#dae8fc;strokeColor=#000000;" vertex="1" parent="1">
          <mxGeometry x="440" y="1260" width="240" height="180" as="geometry" />
        </mxCell>
        <mxCell id="43woCf4Ci9Up-YKyNIjF-122" value="skill_id: NUMBER NOT NULL&amp;nbsp;&lt;b style=&quot;border-color: var(--border-color);&quot;&gt;(PK)&lt;/b&gt;" style="text;strokeColor=none;fillColor=none;align=left;verticalAlign=middle;spacingLeft=4;spacingRight=4;overflow=hidden;points=[[0,0.5],[1,0.5]];portConstraint=eastwest;rotatable=0;whiteSpace=wrap;html=1;" vertex="1" parent="43woCf4Ci9Up-YKyNIjF-121">
          <mxGeometry y="30" width="240" height="30" as="geometry" />
        </mxCell>
        <mxCell id="43woCf4Ci9Up-YKyNIjF-123" value="skill_name: VARCHAR2(50) NOT NULL" style="text;strokeColor=none;fillColor=none;align=left;verticalAlign=middle;spacingLeft=4;spacingRight=4;overflow=hidden;points=[[0,0.5],[1,0.5]];portConstraint=eastwest;rotatable=0;whiteSpace=wrap;html=1;" vertex="1" parent="43woCf4Ci9Up-YKyNIjF-121">
          <mxGeometry y="60" width="240" height="30" as="geometry" />
        </mxCell>
        <mxCell id="43woCf4Ci9Up-YKyNIjF-124" value="proficiency_level: VARCHAR2(50)" style="text;strokeColor=none;fillColor=none;align=left;verticalAlign=middle;spacingLeft=4;spacingRight=4;overflow=hidden;points=[[0,0.5],[1,0.5]];portConstraint=eastwest;rotatable=0;whiteSpace=wrap;html=1;" vertex="1" parent="43woCf4Ci9Up-YKyNIjF-121">
          <mxGeometry y="90" width="240" height="30" as="geometry" />
        </mxCell>
        <mxCell id="43woCf4Ci9Up-YKyNIjF-125" value="profile_id: NUMBER NOT NULL&lt;b style=&quot;border-color: var(--border-color);&quot;&gt;&amp;nbsp;(FK)&lt;/b&gt;" style="text;strokeColor=none;fillColor=none;align=left;verticalAlign=middle;spacingLeft=4;spacingRight=4;overflow=hidden;points=[[0,0.5],[1,0.5]];portConstraint=eastwest;rotatable=0;whiteSpace=wrap;html=1;" vertex="1" parent="43woCf4Ci9Up-YKyNIjF-121">
          <mxGeometry y="120" width="240" height="30" as="geometry" />
        </mxCell>
        <mxCell id="43woCf4Ci9Up-YKyNIjF-126" value="dt_tm_stmp: DATE NOT NULL" style="text;strokeColor=none;fillColor=none;align=left;verticalAlign=middle;spacingLeft=4;spacingRight=4;overflow=hidden;points=[[0,0.5],[1,0.5]];portConstraint=eastwest;rotatable=0;whiteSpace=wrap;html=1;" vertex="1" parent="43woCf4Ci9Up-YKyNIjF-121">
          <mxGeometry y="150" width="240" height="30" as="geometry" />
        </mxCell>
        <mxCell id="43woCf4Ci9Up-YKyNIjF-127" value="Education" style="swimlane;fontStyle=0;childLayout=stackLayout;horizontal=1;startSize=30;horizontalStack=0;resizeParent=1;resizeParentMax=0;resizeLast=0;collapsible=1;marginBottom=0;whiteSpace=wrap;html=1;fillColor=#dae8fc;strokeColor=#000000;" vertex="1" parent="1">
          <mxGeometry x="760" y="1260" width="230" height="270" as="geometry" />
        </mxCell>
        <mxCell id="43woCf4Ci9Up-YKyNIjF-128" value="education_id: NUMBER NOT NULL&amp;nbsp;&lt;b style=&quot;border-color: var(--border-color);&quot;&gt;(PK)&lt;/b&gt;" style="text;strokeColor=none;fillColor=none;align=left;verticalAlign=middle;spacingLeft=4;spacingRight=4;overflow=hidden;points=[[0,0.5],[1,0.5]];portConstraint=eastwest;rotatable=0;whiteSpace=wrap;html=1;" vertex="1" parent="43woCf4Ci9Up-YKyNIjF-127">
          <mxGeometry y="30" width="230" height="30" as="geometry" />
        </mxCell>
        <mxCell id="43woCf4Ci9Up-YKyNIjF-129" value="school_name: VARCHAR2(50)" style="text;strokeColor=none;fillColor=none;align=left;verticalAlign=middle;spacingLeft=4;spacingRight=4;overflow=hidden;points=[[0,0.5],[1,0.5]];portConstraint=eastwest;rotatable=0;whiteSpace=wrap;html=1;" vertex="1" parent="43woCf4Ci9Up-YKyNIjF-127">
          <mxGeometry y="60" width="230" height="30" as="geometry" />
        </mxCell>
        <mxCell id="43woCf4Ci9Up-YKyNIjF-130" value="degree: VARCHAR2(50)" style="text;strokeColor=none;fillColor=none;align=left;verticalAlign=middle;spacingLeft=4;spacingRight=4;overflow=hidden;points=[[0,0.5],[1,0.5]];portConstraint=eastwest;rotatable=0;whiteSpace=wrap;html=1;" vertex="1" parent="43woCf4Ci9Up-YKyNIjF-127">
          <mxGeometry y="90" width="230" height="30" as="geometry" />
        </mxCell>
        <mxCell id="43woCf4Ci9Up-YKyNIjF-131" value="field_of_study: VARCHAR2(200)" style="text;strokeColor=none;fillColor=none;align=left;verticalAlign=middle;spacingLeft=4;spacingRight=4;overflow=hidden;points=[[0,0.5],[1,0.5]];portConstraint=eastwest;rotatable=0;whiteSpace=wrap;html=1;" vertex="1" parent="43woCf4Ci9Up-YKyNIjF-127">
          <mxGeometry y="120" width="230" height="30" as="geometry" />
        </mxCell>
        <mxCell id="43woCf4Ci9Up-YKyNIjF-132" value="start_date: DATE" style="text;strokeColor=none;fillColor=none;align=left;verticalAlign=middle;spacingLeft=4;spacingRight=4;overflow=hidden;points=[[0,0.5],[1,0.5]];portConstraint=eastwest;rotatable=0;whiteSpace=wrap;html=1;" vertex="1" parent="43woCf4Ci9Up-YKyNIjF-127">
          <mxGeometry y="150" width="230" height="30" as="geometry" />
        </mxCell>
        <mxCell id="43woCf4Ci9Up-YKyNIjF-133" value="end_date: DATE" style="text;strokeColor=none;fillColor=none;align=left;verticalAlign=middle;spacingLeft=4;spacingRight=4;overflow=hidden;points=[[0,0.5],[1,0.5]];portConstraint=eastwest;rotatable=0;whiteSpace=wrap;html=1;" vertex="1" parent="43woCf4Ci9Up-YKyNIjF-127">
          <mxGeometry y="180" width="230" height="30" as="geometry" />
        </mxCell>
        <mxCell id="43woCf4Ci9Up-YKyNIjF-134" value="profile_id: NUMBER NOT NULL&lt;b style=&quot;border-color: var(--border-color);&quot;&gt;&amp;nbsp;(FK)&lt;/b&gt;" style="text;strokeColor=none;fillColor=none;align=left;verticalAlign=middle;spacingLeft=4;spacingRight=4;overflow=hidden;points=[[0,0.5],[1,0.5]];portConstraint=eastwest;rotatable=0;whiteSpace=wrap;html=1;" vertex="1" parent="43woCf4Ci9Up-YKyNIjF-127">
          <mxGeometry y="210" width="230" height="30" as="geometry" />
        </mxCell>
        <mxCell id="43woCf4Ci9Up-YKyNIjF-135" value="&lt;span style=&quot;color: rgb(0, 0, 0); font-family: Helvetica; font-size: 12px; font-style: normal; font-variant-ligatures: normal; font-variant-caps: normal; font-weight: 400; letter-spacing: normal; orphans: 2; text-align: left; text-indent: 0px; text-transform: none; widows: 2; word-spacing: 0px; -webkit-text-stroke-width: 0px; background-color: rgb(251, 251, 251); text-decoration-thickness: initial; text-decoration-style: initial; text-decoration-color: initial; float: none; display: inline !important;&quot;&gt;dt_tm_stmp: DATE NOT NULL&lt;/span&gt;" style="text;strokeColor=none;fillColor=none;align=left;verticalAlign=middle;spacingLeft=4;spacingRight=4;overflow=hidden;points=[[0,0.5],[1,0.5]];portConstraint=eastwest;rotatable=0;whiteSpace=wrap;html=1;" vertex="1" parent="43woCf4Ci9Up-YKyNIjF-127">
          <mxGeometry y="240" width="230" height="30" as="geometry" />
        </mxCell>
        <mxCell id="43woCf4Ci9Up-YKyNIjF-136" value="Experience" style="swimlane;fontStyle=0;childLayout=stackLayout;horizontal=1;startSize=30;horizontalStack=0;resizeParent=1;resizeParentMax=0;resizeLast=0;collapsible=1;marginBottom=0;whiteSpace=wrap;html=1;fillColor=#dae8fc;strokeColor=#000000;" vertex="1" parent="1">
          <mxGeometry x="80" y="1260" width="280" height="240" as="geometry" />
        </mxCell>
        <mxCell id="43woCf4Ci9Up-YKyNIjF-137" value="project_id: NUMBER NOT NULL&amp;nbsp;&lt;b style=&quot;border-color: var(--border-color);&quot;&gt;(PK)&lt;/b&gt;" style="text;strokeColor=none;fillColor=none;align=left;verticalAlign=middle;spacingLeft=4;spacingRight=4;overflow=hidden;points=[[0,0.5],[1,0.5]];portConstraint=eastwest;rotatable=0;whiteSpace=wrap;html=1;" vertex="1" parent="43woCf4Ci9Up-YKyNIjF-136">
          <mxGeometry y="30" width="280" height="30" as="geometry" />
        </mxCell>
        <mxCell id="43woCf4Ci9Up-YKyNIjF-138" value="project_name: VARCHAR2(100) NOT NULL" style="text;strokeColor=none;fillColor=none;align=left;verticalAlign=middle;spacingLeft=4;spacingRight=4;overflow=hidden;points=[[0,0.5],[1,0.5]];portConstraint=eastwest;rotatable=0;whiteSpace=wrap;html=1;" vertex="1" parent="43woCf4Ci9Up-YKyNIjF-136">
          <mxGeometry y="60" width="280" height="30" as="geometry" />
        </mxCell>
        <mxCell id="43woCf4Ci9Up-YKyNIjF-139" value="project_description: VARCHAR(200) NOT NULL" style="text;strokeColor=none;fillColor=none;align=left;verticalAlign=middle;spacingLeft=4;spacingRight=4;overflow=hidden;points=[[0,0.5],[1,0.5]];portConstraint=eastwest;rotatable=0;whiteSpace=wrap;html=1;" vertex="1" parent="43woCf4Ci9Up-YKyNIjF-136">
          <mxGeometry y="90" width="280" height="30" as="geometry" />
        </mxCell>
        <mxCell id="43woCf4Ci9Up-YKyNIjF-140" value="start_date: DATE NOT NULL" style="text;strokeColor=none;fillColor=none;align=left;verticalAlign=middle;spacingLeft=4;spacingRight=4;overflow=hidden;points=[[0,0.5],[1,0.5]];portConstraint=eastwest;rotatable=0;whiteSpace=wrap;html=1;" vertex="1" parent="43woCf4Ci9Up-YKyNIjF-136">
          <mxGeometry y="120" width="280" height="30" as="geometry" />
        </mxCell>
        <mxCell id="43woCf4Ci9Up-YKyNIjF-141" value="end_date: : DATE NOT NULL" style="text;strokeColor=none;fillColor=none;align=left;verticalAlign=middle;spacingLeft=4;spacingRight=4;overflow=hidden;points=[[0,0.5],[1,0.5]];portConstraint=eastwest;rotatable=0;whiteSpace=wrap;html=1;" vertex="1" parent="43woCf4Ci9Up-YKyNIjF-136">
          <mxGeometry y="150" width="280" height="30" as="geometry" />
        </mxCell>
        <mxCell id="43woCf4Ci9Up-YKyNIjF-142" value="profile_id: NUMBER NOT NULL&lt;b style=&quot;border-color: var(--border-color);&quot;&gt;&amp;nbsp;(FK)&lt;/b&gt;" style="text;strokeColor=none;fillColor=none;align=left;verticalAlign=middle;spacingLeft=4;spacingRight=4;overflow=hidden;points=[[0,0.5],[1,0.5]];portConstraint=eastwest;rotatable=0;whiteSpace=wrap;html=1;" vertex="1" parent="43woCf4Ci9Up-YKyNIjF-136">
          <mxGeometry y="180" width="280" height="30" as="geometry" />
        </mxCell>
        <mxCell id="43woCf4Ci9Up-YKyNIjF-144" value="dt_tm_stmp: DATE NOT NULL" style="text;strokeColor=none;fillColor=none;align=left;verticalAlign=middle;spacingLeft=4;spacingRight=4;overflow=hidden;points=[[0,0.5],[1,0.5]];portConstraint=eastwest;rotatable=0;whiteSpace=wrap;html=1;" vertex="1" parent="43woCf4Ci9Up-YKyNIjF-136">
          <mxGeometry y="210" width="280" height="30" as="geometry" />
        </mxCell>
        <mxCell id="43woCf4Ci9Up-YKyNIjF-147" value="" style="endArrow=none;html=1;rounded=0;entryX=0.5;entryY=0;entryDx=0;entryDy=0;dashed=1;dashPattern=8 8;startArrow=classic;startFill=1;endFill=0;" edge="1" parent="1" source="43woCf4Ci9Up-YKyNIjF-113" target="43woCf4Ci9Up-YKyNIjF-121">
          <mxGeometry width="50" height="50" relative="1" as="geometry">
            <mxPoint x="560" y="1209" as="sourcePoint" />
            <mxPoint x="560" y="1250" as="targetPoint" />
          </mxGeometry>
        </mxCell>
        <mxCell id="43woCf4Ci9Up-YKyNIjF-148" value="" style="endArrow=classic;html=1;rounded=0;entryX=0;entryY=0.5;entryDx=0;entryDy=0;dashed=1;dashPattern=8 8;exitX=0.5;exitY=0;exitDx=0;exitDy=0;" edge="1" parent="1" source="43woCf4Ci9Up-YKyNIjF-136" target="43woCf4Ci9Up-YKyNIjF-110">
          <mxGeometry width="50" height="50" relative="1" as="geometry">
            <mxPoint x="200" y="1142.5" as="sourcePoint" />
            <mxPoint x="326" y="1067.5" as="targetPoint" />
            <Array as="points">
              <mxPoint x="220" y="1075" />
            </Array>
          </mxGeometry>
        </mxCell>
        <mxCell id="43woCf4Ci9Up-YKyNIjF-149" value="" style="endArrow=classic;html=1;rounded=0;entryX=1;entryY=0.5;entryDx=0;entryDy=0;dashed=1;dashPattern=8 8;exitX=0.5;exitY=0;exitDx=0;exitDy=0;" edge="1" parent="1" source="43woCf4Ci9Up-YKyNIjF-127" target="43woCf4Ci9Up-YKyNIjF-110">
          <mxGeometry width="50" height="50" relative="1" as="geometry">
            <mxPoint x="780" y="690" as="sourcePoint" />
            <mxPoint x="651" y="615" as="targetPoint" />
            <Array as="points">
              <mxPoint x="875" y="1075" />
            </Array>
          </mxGeometry>
        </mxCell>
      </root>
    </mxGraphModel>
  </diagram>
  <diagram id="SQFH57C3cIwmeFMC4TI3" name="Страница 2">
    <mxGraphModel grid="1" page="1" gridSize="10" guides="1" tooltips="1" connect="1" arrows="1" fold="1" pageScale="1" pageWidth="827" pageHeight="1169" math="0" shadow="0">
      <root>
        <mxCell id="0" />
        <mxCell id="1" parent="0" />
        <mxCell id="hcMxVuen1ia8sO0j5E7S-1" value="UserEssentials" style="swimlane;fontStyle=0;childLayout=stackLayout;horizontal=1;startSize=30;horizontalStack=0;resizeParent=1;resizeParentMax=0;resizeLast=0;collapsible=1;marginBottom=0;whiteSpace=wrap;html=1;fillColor=#dae8fc;strokeColor=#6c8ebf;" vertex="1" parent="1">
          <mxGeometry x="160" y="50" width="140" height="150" as="geometry" />
        </mxCell>
        <mxCell id="hcMxVuen1ia8sO0j5E7S-2" value="user_id(PK)" style="text;strokeColor=none;fillColor=none;align=left;verticalAlign=middle;spacingLeft=4;spacingRight=4;overflow=hidden;points=[[0,0.5],[1,0.5]];portConstraint=eastwest;rotatable=0;whiteSpace=wrap;html=1;" vertex="1" parent="hcMxVuen1ia8sO0j5E7S-1">
          <mxGeometry y="30" width="140" height="30" as="geometry" />
        </mxCell>
        <mxCell id="hcMxVuen1ia8sO0j5E7S-3" value="email" style="text;strokeColor=none;fillColor=none;align=left;verticalAlign=middle;spacingLeft=4;spacingRight=4;overflow=hidden;points=[[0,0.5],[1,0.5]];portConstraint=eastwest;rotatable=0;whiteSpace=wrap;html=1;" vertex="1" parent="hcMxVuen1ia8sO0j5E7S-1">
          <mxGeometry y="60" width="140" height="30" as="geometry" />
        </mxCell>
        <mxCell id="hcMxVuen1ia8sO0j5E7S-4" value="password" style="text;strokeColor=none;fillColor=none;align=left;verticalAlign=middle;spacingLeft=4;spacingRight=4;overflow=hidden;points=[[0,0.5],[1,0.5]];portConstraint=eastwest;rotatable=0;whiteSpace=wrap;html=1;" vertex="1" parent="hcMxVuen1ia8sO0j5E7S-1">
          <mxGeometry y="90" width="140" height="30" as="geometry" />
        </mxCell>
        <mxCell id="hcMxVuen1ia8sO0j5E7S-5" value="profile_id(FK)" style="text;strokeColor=none;fillColor=none;align=left;verticalAlign=middle;spacingLeft=4;spacingRight=4;overflow=hidden;points=[[0,0.5],[1,0.5]];portConstraint=eastwest;rotatable=0;whiteSpace=wrap;html=1;" vertex="1" parent="hcMxVuen1ia8sO0j5E7S-1">
          <mxGeometry y="120" width="140" height="30" as="geometry" />
        </mxCell>
        <mxCell id="hcMxVuen1ia8sO0j5E7S-6" value="UserEssentials" style="swimlane;fontStyle=0;childLayout=stackLayout;horizontal=1;startSize=30;horizontalStack=0;resizeParent=1;resizeParentMax=0;resizeLast=0;collapsible=1;marginBottom=0;whiteSpace=wrap;html=1;fillColor=#dae8fc;strokeColor=#6c8ebf;" vertex="1" parent="1">
          <mxGeometry x="120" y="450" width="220" height="150" as="geometry" />
        </mxCell>
        <mxCell id="hcMxVuen1ia8sO0j5E7S-7" value="user_id: NUMBER NOT NULL(PK)" style="text;strokeColor=none;fillColor=none;align=left;verticalAlign=middle;spacingLeft=4;spacingRight=4;overflow=hidden;points=[[0,0.5],[1,0.5]];portConstraint=eastwest;rotatable=0;whiteSpace=wrap;html=1;" vertex="1" parent="hcMxVuen1ia8sO0j5E7S-6">
          <mxGeometry y="30" width="220" height="30" as="geometry" />
        </mxCell>
        <mxCell id="hcMxVuen1ia8sO0j5E7S-8" value="email: VARCHAR2(50) NOT NULL" style="text;strokeColor=none;fillColor=none;align=left;verticalAlign=middle;spacingLeft=4;spacingRight=4;overflow=hidden;points=[[0,0.5],[1,0.5]];portConstraint=eastwest;rotatable=0;whiteSpace=wrap;html=1;" vertex="1" parent="hcMxVuen1ia8sO0j5E7S-6">
          <mxGeometry y="60" width="220" height="30" as="geometry" />
        </mxCell>
        <mxCell id="hcMxVuen1ia8sO0j5E7S-9" value="password: VARCHAR2(50) NOT NULL" style="text;strokeColor=none;fillColor=none;align=left;verticalAlign=middle;spacingLeft=4;spacingRight=4;overflow=hidden;points=[[0,0.5],[1,0.5]];portConstraint=eastwest;rotatable=0;whiteSpace=wrap;html=1;" vertex="1" parent="hcMxVuen1ia8sO0j5E7S-6">
          <mxGeometry y="90" width="220" height="30" as="geometry" />
        </mxCell>
        <mxCell id="hcMxVuen1ia8sO0j5E7S-10" value="profile_id: NUMBER NOT NULL(FK)" style="text;strokeColor=none;fillColor=none;align=left;verticalAlign=middle;spacingLeft=4;spacingRight=4;overflow=hidden;points=[[0,0.5],[1,0.5]];portConstraint=eastwest;rotatable=0;whiteSpace=wrap;html=1;" vertex="1" parent="hcMxVuen1ia8sO0j5E7S-6">
          <mxGeometry y="120" width="220" height="30" as="geometry" />
        </mxCell>
        <mxCell id="hcMxVuen1ia8sO0j5E7S-11" value="UserEssentials" style="swimlane;fontStyle=0;childLayout=stackLayout;horizontal=1;startSize=30;horizontalStack=0;resizeParent=1;resizeParentMax=0;resizeLast=0;collapsible=1;marginBottom=0;whiteSpace=wrap;html=1;fillColor=#dae8fc;strokeColor=#6c8ebf;" vertex="1" parent="1">
          <mxGeometry x="160" y="250" width="140" height="150" as="geometry" />
        </mxCell>
        <mxCell id="hcMxVuen1ia8sO0j5E7S-12" value="user_id(PK)" style="text;strokeColor=none;fillColor=none;align=left;verticalAlign=middle;spacingLeft=4;spacingRight=4;overflow=hidden;points=[[0,0.5],[1,0.5]];portConstraint=eastwest;rotatable=0;whiteSpace=wrap;html=1;" vertex="1" parent="hcMxVuen1ia8sO0j5E7S-11">
          <mxGeometry y="30" width="140" height="30" as="geometry" />
        </mxCell>
        <mxCell id="hcMxVuen1ia8sO0j5E7S-13" value="email" style="text;strokeColor=none;fillColor=none;align=left;verticalAlign=middle;spacingLeft=4;spacingRight=4;overflow=hidden;points=[[0,0.5],[1,0.5]];portConstraint=eastwest;rotatable=0;whiteSpace=wrap;html=1;" vertex="1" parent="hcMxVuen1ia8sO0j5E7S-11">
          <mxGeometry y="60" width="140" height="30" as="geometry" />
        </mxCell>
        <mxCell id="hcMxVuen1ia8sO0j5E7S-14" value="password" style="text;strokeColor=none;fillColor=none;align=left;verticalAlign=middle;spacingLeft=4;spacingRight=4;overflow=hidden;points=[[0,0.5],[1,0.5]];portConstraint=eastwest;rotatable=0;whiteSpace=wrap;html=1;" vertex="1" parent="hcMxVuen1ia8sO0j5E7S-11">
          <mxGeometry y="90" width="140" height="30" as="geometry" />
        </mxCell>
        <mxCell id="hcMxVuen1ia8sO0j5E7S-15" value="profile_id(FK)" style="text;strokeColor=none;fillColor=none;align=left;verticalAlign=middle;spacingLeft=4;spacingRight=4;overflow=hidden;points=[[0,0.5],[1,0.5]];portConstraint=eastwest;rotatable=0;whiteSpace=wrap;html=1;" vertex="1" parent="hcMxVuen1ia8sO0j5E7S-11">
          <mxGeometry y="120" width="140" height="30" as="geometry" />
        </mxCell>
      </root>
    </mxGraphModel>
  </diagram>
</mxfile>
